<mxfile host="app.diagrams.net" modified="2023-06-05T19:48:45.859Z" agent="Mozilla/5.0 (Windows NT 10.0; Win64; x64) AppleWebKit/537.36 (KHTML, like Gecko) Chrome/112.0.0.0 YaBrowser/23.5.1.714 Yowser/2.5 Safari/537.36" etag="2d90yO6rBo6We2k8QD0c" version="21.3.5" type="device">
  <diagram id="C5RBs43oDa-KdzZeNtuy" name="Page-1">
    <mxGraphModel dx="1687" dy="902" grid="0" gridSize="10" guides="1" tooltips="1" connect="1" arrows="1" fold="1" page="1" pageScale="1" pageWidth="3300" pageHeight="4681" math="0" shadow="0">
      <root>
        <mxCell id="WIyWlLk6GJQsqaUBKTNV-0" />
        <mxCell id="WIyWlLk6GJQsqaUBKTNV-1" parent="WIyWlLk6GJQsqaUBKTNV-0" />
        <mxCell id="HyknwIUqbnqMzjjS9w7n-23" value="КодПоставщика: VARCHAR(10)" style="swimlane;fontStyle=0;childLayout=stackLayout;horizontal=1;startSize=30;horizontalStack=0;resizeParent=1;resizeParentMax=0;resizeLast=0;collapsible=1;marginBottom=0;whiteSpace=wrap;html=1;align=left;movable=0;resizable=0;rotatable=0;deletable=0;editable=0;locked=1;connectable=0;" vertex="1" parent="WIyWlLk6GJQsqaUBKTNV-1">
          <mxGeometry x="691.5" y="50" width="185" height="120" as="geometry">
            <mxRectangle x="290" y="194" width="54" height="30" as="alternateBounds" />
          </mxGeometry>
        </mxCell>
        <mxCell id="HyknwIUqbnqMzjjS9w7n-24" value="Название: VARCHAR(50)" style="text;strokeColor=none;fillColor=none;align=left;verticalAlign=middle;spacingLeft=4;spacingRight=4;overflow=hidden;points=[[0,0.5],[1,0.5]];portConstraint=eastwest;rotatable=0;whiteSpace=wrap;html=1;" vertex="1" parent="HyknwIUqbnqMzjjS9w7n-23">
          <mxGeometry y="30" width="185" height="30" as="geometry" />
        </mxCell>
        <mxCell id="HyknwIUqbnqMzjjS9w7n-25" value="НомерСчета: VARCHAR(50)" style="text;strokeColor=none;fillColor=none;align=left;verticalAlign=middle;spacingLeft=4;spacingRight=4;overflow=hidden;points=[[0,0.5],[1,0.5]];portConstraint=eastwest;rotatable=0;whiteSpace=wrap;html=1;" vertex="1" parent="HyknwIUqbnqMzjjS9w7n-23">
          <mxGeometry y="60" width="185" height="30" as="geometry" />
        </mxCell>
        <mxCell id="HyknwIUqbnqMzjjS9w7n-26" value="Адрес: VARCHAR(50)" style="text;strokeColor=none;fillColor=none;align=left;verticalAlign=middle;spacingLeft=4;spacingRight=4;overflow=hidden;points=[[0,0.5],[1,0.5]];portConstraint=eastwest;rotatable=0;whiteSpace=wrap;html=1;" vertex="1" parent="HyknwIUqbnqMzjjS9w7n-23">
          <mxGeometry y="90" width="185" height="30" as="geometry" />
        </mxCell>
        <mxCell id="HyknwIUqbnqMzjjS9w7n-27" value="КодПоставки: VARCHAR(10)" style="swimlane;fontStyle=0;childLayout=stackLayout;horizontal=1;startSize=30;horizontalStack=0;resizeParent=1;resizeParentMax=0;resizeLast=0;collapsible=1;marginBottom=0;whiteSpace=wrap;html=1;align=left;movable=0;resizable=0;rotatable=0;deletable=0;editable=0;locked=1;connectable=0;" vertex="1" parent="WIyWlLk6GJQsqaUBKTNV-1">
          <mxGeometry x="389" y="284" width="240" height="210" as="geometry">
            <mxRectangle x="133" y="196" width="193" height="30" as="alternateBounds" />
          </mxGeometry>
        </mxCell>
        <mxCell id="HyknwIUqbnqMzjjS9w7n-28" value="КодПоставщика: VARCHAR(10) (FK)" style="text;strokeColor=none;fillColor=none;align=left;verticalAlign=middle;spacingLeft=4;spacingRight=4;overflow=hidden;points=[[0,0.5],[1,0.5]];portConstraint=eastwest;rotatable=0;whiteSpace=wrap;html=1;" vertex="1" parent="HyknwIUqbnqMzjjS9w7n-27">
          <mxGeometry y="30" width="240" height="30" as="geometry" />
        </mxCell>
        <mxCell id="HyknwIUqbnqMzjjS9w7n-32" value="КодМенеджера: VARCHAR(10) (FK)" style="text;strokeColor=none;fillColor=none;align=left;verticalAlign=middle;spacingLeft=4;spacingRight=4;overflow=hidden;points=[[0,0.5],[1,0.5]];portConstraint=eastwest;rotatable=0;whiteSpace=wrap;html=1;" vertex="1" parent="HyknwIUqbnqMzjjS9w7n-27">
          <mxGeometry y="60" width="240" height="30" as="geometry" />
        </mxCell>
        <mxCell id="HyknwIUqbnqMzjjS9w7n-31" value="СтатусПоставки: VARCHAR(20)" style="text;strokeColor=none;fillColor=none;align=left;verticalAlign=middle;spacingLeft=4;spacingRight=4;overflow=hidden;points=[[0,0.5],[1,0.5]];portConstraint=eastwest;rotatable=0;whiteSpace=wrap;html=1;" vertex="1" parent="HyknwIUqbnqMzjjS9w7n-27">
          <mxGeometry y="90" width="240" height="30" as="geometry" />
        </mxCell>
        <mxCell id="HyknwIUqbnqMzjjS9w7n-33" value="ДатаПоставки: DATE" style="text;strokeColor=none;fillColor=none;align=left;verticalAlign=middle;spacingLeft=4;spacingRight=4;overflow=hidden;points=[[0,0.5],[1,0.5]];portConstraint=eastwest;rotatable=0;whiteSpace=wrap;html=1;" vertex="1" parent="HyknwIUqbnqMzjjS9w7n-27">
          <mxGeometry y="120" width="240" height="30" as="geometry" />
        </mxCell>
        <mxCell id="HyknwIUqbnqMzjjS9w7n-105" value="КодБазы: VARCHAR(10) (FK)" style="text;strokeColor=none;fillColor=none;align=left;verticalAlign=middle;spacingLeft=4;spacingRight=4;overflow=hidden;points=[[0,0.5],[1,0.5]];portConstraint=eastwest;rotatable=0;whiteSpace=wrap;html=1;" vertex="1" parent="HyknwIUqbnqMzjjS9w7n-27">
          <mxGeometry y="150" width="240" height="30" as="geometry" />
        </mxCell>
        <mxCell id="HyknwIUqbnqMzjjS9w7n-29" value="НомерДоговораПоставки: VARCHAR(10)" style="text;strokeColor=none;fillColor=none;align=left;verticalAlign=middle;spacingLeft=4;spacingRight=4;overflow=hidden;points=[[0,0.5],[1,0.5]];portConstraint=eastwest;rotatable=0;whiteSpace=wrap;html=1;" vertex="1" parent="HyknwIUqbnqMzjjS9w7n-27">
          <mxGeometry y="180" width="240" height="30" as="geometry" />
        </mxCell>
        <mxCell id="HyknwIUqbnqMzjjS9w7n-34" value="КодПроизводителя:VARCHAR(10)" style="swimlane;fontStyle=0;childLayout=stackLayout;horizontal=1;startSize=30;horizontalStack=0;resizeParent=1;resizeParentMax=0;resizeLast=0;collapsible=1;marginBottom=0;whiteSpace=wrap;html=1;align=left;movable=0;resizable=0;rotatable=0;deletable=0;editable=0;locked=1;connectable=0;" vertex="1" parent="WIyWlLk6GJQsqaUBKTNV-1">
          <mxGeometry x="30" y="57" width="196" height="120" as="geometry" />
        </mxCell>
        <mxCell id="HyknwIUqbnqMzjjS9w7n-35" value="Название: VARCHAR(50)" style="text;strokeColor=none;fillColor=none;align=left;verticalAlign=middle;spacingLeft=4;spacingRight=4;overflow=hidden;points=[[0,0.5],[1,0.5]];portConstraint=eastwest;rotatable=0;whiteSpace=wrap;html=1;" vertex="1" parent="HyknwIUqbnqMzjjS9w7n-34">
          <mxGeometry y="30" width="196" height="30" as="geometry" />
        </mxCell>
        <mxCell id="HyknwIUqbnqMzjjS9w7n-36" value="НомерСчета: VARCHAR(50)" style="text;strokeColor=none;fillColor=none;align=left;verticalAlign=middle;spacingLeft=4;spacingRight=4;overflow=hidden;points=[[0,0.5],[1,0.5]];portConstraint=eastwest;rotatable=0;whiteSpace=wrap;html=1;" vertex="1" parent="HyknwIUqbnqMzjjS9w7n-34">
          <mxGeometry y="60" width="196" height="30" as="geometry" />
        </mxCell>
        <mxCell id="HyknwIUqbnqMzjjS9w7n-37" value="Адрес: VARCHAR(50)" style="text;strokeColor=none;fillColor=none;align=left;verticalAlign=middle;spacingLeft=4;spacingRight=4;overflow=hidden;points=[[0,0.5],[1,0.5]];portConstraint=eastwest;rotatable=0;whiteSpace=wrap;html=1;" vertex="1" parent="HyknwIUqbnqMzjjS9w7n-34">
          <mxGeometry y="90" width="196" height="30" as="geometry" />
        </mxCell>
        <mxCell id="HyknwIUqbnqMzjjS9w7n-38" value="КодМенеджера: VARCHAR(10)" style="swimlane;fontStyle=0;childLayout=stackLayout;horizontal=1;startSize=30;horizontalStack=0;resizeParent=1;resizeParentMax=0;resizeLast=0;collapsible=1;marginBottom=0;whiteSpace=wrap;html=1;align=left;movable=0;resizable=0;rotatable=0;deletable=0;editable=0;locked=1;connectable=0;" vertex="1" parent="WIyWlLk6GJQsqaUBKTNV-1">
          <mxGeometry x="640" y="490" width="220" height="120" as="geometry" />
        </mxCell>
        <mxCell id="HyknwIUqbnqMzjjS9w7n-39" value="ТабельныйНомер: VARCHAR(40)" style="text;strokeColor=none;fillColor=none;align=left;verticalAlign=middle;spacingLeft=4;spacingRight=4;overflow=hidden;points=[[0,0.5],[1,0.5]];portConstraint=eastwest;rotatable=0;whiteSpace=wrap;html=1;" vertex="1" parent="HyknwIUqbnqMzjjS9w7n-38">
          <mxGeometry y="30" width="220" height="30" as="geometry" />
        </mxCell>
        <mxCell id="HyknwIUqbnqMzjjS9w7n-40" value="ПаспортныеДанные: VARCHAR(20)" style="text;strokeColor=none;fillColor=none;align=left;verticalAlign=middle;spacingLeft=4;spacingRight=4;overflow=hidden;points=[[0,0.5],[1,0.5]];portConstraint=eastwest;rotatable=0;whiteSpace=wrap;html=1;" vertex="1" parent="HyknwIUqbnqMzjjS9w7n-38">
          <mxGeometry y="60" width="220" height="30" as="geometry" />
        </mxCell>
        <mxCell id="HyknwIUqbnqMzjjS9w7n-41" value="Должность: VARCHAR(30)" style="text;strokeColor=none;fillColor=none;align=left;verticalAlign=middle;spacingLeft=4;spacingRight=4;overflow=hidden;points=[[0,0.5],[1,0.5]];portConstraint=eastwest;rotatable=0;whiteSpace=wrap;html=1;" vertex="1" parent="HyknwIUqbnqMzjjS9w7n-38">
          <mxGeometry y="90" width="220" height="30" as="geometry" />
        </mxCell>
        <mxCell id="HyknwIUqbnqMzjjS9w7n-42" value="КодТовара:&amp;nbsp;VARCHAR(10)" style="swimlane;fontStyle=0;childLayout=stackLayout;horizontal=1;startSize=30;horizontalStack=0;resizeParent=1;resizeParentMax=0;resizeLast=0;collapsible=1;marginBottom=0;whiteSpace=wrap;html=1;align=left;movable=0;resizable=0;rotatable=0;deletable=0;editable=0;locked=1;connectable=0;" vertex="1" parent="WIyWlLk6GJQsqaUBKTNV-1">
          <mxGeometry x="389" y="47" width="230" height="150" as="geometry" />
        </mxCell>
        <mxCell id="HyknwIUqbnqMzjjS9w7n-45" value="КодПроизводителя: VARCHAR(10) (FK)" style="text;strokeColor=none;fillColor=none;align=left;verticalAlign=middle;spacingLeft=4;spacingRight=4;overflow=hidden;points=[[0,0.5],[1,0.5]];portConstraint=eastwest;rotatable=0;whiteSpace=wrap;html=1;" vertex="1" parent="HyknwIUqbnqMzjjS9w7n-42">
          <mxGeometry y="30" width="230" height="30" as="geometry" />
        </mxCell>
        <mxCell id="HyknwIUqbnqMzjjS9w7n-43" value="Название: VARCHAR(50)" style="text;strokeColor=none;fillColor=none;align=left;verticalAlign=middle;spacingLeft=4;spacingRight=4;overflow=hidden;points=[[0,0.5],[1,0.5]];portConstraint=eastwest;rotatable=0;whiteSpace=wrap;html=1;" vertex="1" parent="HyknwIUqbnqMzjjS9w7n-42">
          <mxGeometry y="60" width="230" height="30" as="geometry" />
        </mxCell>
        <mxCell id="HyknwIUqbnqMzjjS9w7n-44" value="ЕдиницаИзмерения: VARCHAR(10)" style="text;strokeColor=none;fillColor=none;align=left;verticalAlign=middle;spacingLeft=4;spacingRight=4;overflow=hidden;points=[[0,0.5],[1,0.5]];portConstraint=eastwest;rotatable=0;whiteSpace=wrap;html=1;" vertex="1" parent="HyknwIUqbnqMzjjS9w7n-42">
          <mxGeometry y="90" width="230" height="30" as="geometry" />
        </mxCell>
        <mxCell id="HyknwIUqbnqMzjjS9w7n-46" value="НомерПартии: VARCHAR(30)" style="text;strokeColor=none;fillColor=none;align=left;verticalAlign=middle;spacingLeft=4;spacingRight=4;overflow=hidden;points=[[0,0.5],[1,0.5]];portConstraint=eastwest;rotatable=0;whiteSpace=wrap;html=1;" vertex="1" parent="HyknwIUqbnqMzjjS9w7n-42">
          <mxGeometry y="120" width="230" height="30" as="geometry" />
        </mxCell>
        <mxCell id="HyknwIUqbnqMzjjS9w7n-47" value="КодБазы:&amp;nbsp;VARCHAR(10)" style="swimlane;fontStyle=0;childLayout=stackLayout;horizontal=1;startSize=30;horizontalStack=0;resizeParent=1;resizeParentMax=0;resizeLast=0;collapsible=1;marginBottom=0;whiteSpace=wrap;html=1;align=left;movable=0;resizable=0;rotatable=0;deletable=0;editable=0;locked=1;connectable=0;" vertex="1" parent="WIyWlLk6GJQsqaUBKTNV-1">
          <mxGeometry x="761" y="245" width="195" height="180" as="geometry" />
        </mxCell>
        <mxCell id="HyknwIUqbnqMzjjS9w7n-48" value="КодПоставки: VARCHAR(10) (FK)" style="text;strokeColor=none;fillColor=none;align=left;verticalAlign=middle;spacingLeft=4;spacingRight=4;overflow=hidden;points=[[0,0.5],[1,0.5]];portConstraint=eastwest;rotatable=0;whiteSpace=wrap;html=1;" vertex="1" parent="HyknwIUqbnqMzjjS9w7n-47">
          <mxGeometry y="30" width="195" height="30" as="geometry" />
        </mxCell>
        <mxCell id="HyknwIUqbnqMzjjS9w7n-49" value="КодЗаказа: VARCHAR(10) (FK)" style="text;strokeColor=none;fillColor=none;align=left;verticalAlign=middle;spacingLeft=4;spacingRight=4;overflow=hidden;points=[[0,0.5],[1,0.5]];portConstraint=eastwest;rotatable=0;whiteSpace=wrap;html=1;" vertex="1" parent="HyknwIUqbnqMzjjS9w7n-47">
          <mxGeometry y="60" width="195" height="30" as="geometry" />
        </mxCell>
        <mxCell id="HyknwIUqbnqMzjjS9w7n-50" value="Адрес: VARCHAR(50)" style="text;strokeColor=none;fillColor=none;align=left;verticalAlign=middle;spacingLeft=4;spacingRight=4;overflow=hidden;points=[[0,0.5],[1,0.5]];portConstraint=eastwest;rotatable=0;whiteSpace=wrap;html=1;" vertex="1" parent="HyknwIUqbnqMzjjS9w7n-47">
          <mxGeometry y="90" width="195" height="30" as="geometry" />
        </mxCell>
        <mxCell id="HyknwIUqbnqMzjjS9w7n-51" value="Реквизиты: VARCHAR(50)" style="text;strokeColor=none;fillColor=none;align=left;verticalAlign=middle;spacingLeft=4;spacingRight=4;overflow=hidden;points=[[0,0.5],[1,0.5]];portConstraint=eastwest;rotatable=0;whiteSpace=wrap;html=1;" vertex="1" parent="HyknwIUqbnqMzjjS9w7n-47">
          <mxGeometry y="120" width="195" height="30" as="geometry" />
        </mxCell>
        <mxCell id="HyknwIUqbnqMzjjS9w7n-52" value="ЗапасТовара: VARCHAR(20)" style="text;strokeColor=none;fillColor=none;align=left;verticalAlign=middle;spacingLeft=4;spacingRight=4;overflow=hidden;points=[[0,0.5],[1,0.5]];portConstraint=eastwest;rotatable=0;whiteSpace=wrap;html=1;" vertex="1" parent="HyknwIUqbnqMzjjS9w7n-47">
          <mxGeometry y="150" width="195" height="30" as="geometry" />
        </mxCell>
        <mxCell id="HyknwIUqbnqMzjjS9w7n-53" value="КодПокупателя: VARCHAR(10)" style="swimlane;fontStyle=0;childLayout=stackLayout;horizontal=1;startSize=30;horizontalStack=0;resizeParent=1;resizeParentMax=0;resizeLast=0;collapsible=1;marginBottom=0;whiteSpace=wrap;html=1;align=left;movable=0;resizable=0;rotatable=0;deletable=0;editable=0;locked=1;connectable=0;" vertex="1" parent="WIyWlLk6GJQsqaUBKTNV-1">
          <mxGeometry x="715" y="692" width="186" height="120" as="geometry" />
        </mxCell>
        <mxCell id="HyknwIUqbnqMzjjS9w7n-54" value="Название: VARCHAR(50)" style="text;strokeColor=none;fillColor=none;align=left;verticalAlign=middle;spacingLeft=4;spacingRight=4;overflow=hidden;points=[[0,0.5],[1,0.5]];portConstraint=eastwest;rotatable=0;whiteSpace=wrap;html=1;" vertex="1" parent="HyknwIUqbnqMzjjS9w7n-53">
          <mxGeometry y="30" width="186" height="30" as="geometry" />
        </mxCell>
        <mxCell id="HyknwIUqbnqMzjjS9w7n-55" value="Реквизиты: VARCHAR(50)" style="text;strokeColor=none;fillColor=none;align=left;verticalAlign=middle;spacingLeft=4;spacingRight=4;overflow=hidden;points=[[0,0.5],[1,0.5]];portConstraint=eastwest;rotatable=0;whiteSpace=wrap;html=1;" vertex="1" parent="HyknwIUqbnqMzjjS9w7n-53">
          <mxGeometry y="60" width="186" height="30" as="geometry" />
        </mxCell>
        <mxCell id="HyknwIUqbnqMzjjS9w7n-56" value="Адрес: VARCHAR(50)" style="text;strokeColor=none;fillColor=none;align=left;verticalAlign=middle;spacingLeft=4;spacingRight=4;overflow=hidden;points=[[0,0.5],[1,0.5]];portConstraint=eastwest;rotatable=0;whiteSpace=wrap;html=1;" vertex="1" parent="HyknwIUqbnqMzjjS9w7n-53">
          <mxGeometry y="90" width="186" height="30" as="geometry" />
        </mxCell>
        <mxCell id="HyknwIUqbnqMzjjS9w7n-57" value="КодЗаказа: VARCHAR(10)" style="swimlane;fontStyle=0;childLayout=stackLayout;horizontal=1;startSize=30;horizontalStack=0;resizeParent=1;resizeParentMax=0;resizeLast=0;collapsible=1;marginBottom=0;whiteSpace=wrap;html=1;align=left;movable=0;resizable=0;rotatable=0;deletable=0;editable=0;locked=1;connectable=0;" vertex="1" parent="WIyWlLk6GJQsqaUBKTNV-1">
          <mxGeometry x="389" y="606" width="225" height="180" as="geometry" />
        </mxCell>
        <mxCell id="HyknwIUqbnqMzjjS9w7n-58" value="КодПокупателя: VARCHAR(10) (FK)" style="text;strokeColor=none;fillColor=none;align=left;verticalAlign=middle;spacingLeft=4;spacingRight=4;overflow=hidden;points=[[0,0.5],[1,0.5]];portConstraint=eastwest;rotatable=0;whiteSpace=wrap;html=1;" vertex="1" parent="HyknwIUqbnqMzjjS9w7n-57">
          <mxGeometry y="30" width="225" height="30" as="geometry" />
        </mxCell>
        <mxCell id="HyknwIUqbnqMzjjS9w7n-59" value="КодМенеджера: VARCHAR(10) (FK)" style="text;strokeColor=none;fillColor=none;align=left;verticalAlign=middle;spacingLeft=4;spacingRight=4;overflow=hidden;points=[[0,0.5],[1,0.5]];portConstraint=eastwest;rotatable=0;whiteSpace=wrap;html=1;" vertex="1" parent="HyknwIUqbnqMzjjS9w7n-57">
          <mxGeometry y="60" width="225" height="30" as="geometry" />
        </mxCell>
        <mxCell id="HyknwIUqbnqMzjjS9w7n-60" value="ДатаЗаказа: DATE" style="text;strokeColor=none;fillColor=none;align=left;verticalAlign=middle;spacingLeft=4;spacingRight=4;overflow=hidden;points=[[0,0.5],[1,0.5]];portConstraint=eastwest;rotatable=0;whiteSpace=wrap;html=1;" vertex="1" parent="HyknwIUqbnqMzjjS9w7n-57">
          <mxGeometry y="90" width="225" height="30" as="geometry" />
        </mxCell>
        <mxCell id="HyknwIUqbnqMzjjS9w7n-62" value="НомерДоговораЗаказа: VARCHAR(10)" style="text;strokeColor=none;fillColor=none;align=left;verticalAlign=middle;spacingLeft=4;spacingRight=4;overflow=hidden;points=[[0,0.5],[1,0.5]];portConstraint=eastwest;rotatable=0;whiteSpace=wrap;html=1;" vertex="1" parent="HyknwIUqbnqMzjjS9w7n-57">
          <mxGeometry y="120" width="225" height="30" as="geometry" />
        </mxCell>
        <mxCell id="HyknwIUqbnqMzjjS9w7n-63" value="СтатусЗаказа: VARCHAR(20)" style="text;strokeColor=none;fillColor=none;align=left;verticalAlign=middle;spacingLeft=4;spacingRight=4;overflow=hidden;points=[[0,0.5],[1,0.5]];portConstraint=eastwest;rotatable=0;whiteSpace=wrap;html=1;" vertex="1" parent="HyknwIUqbnqMzjjS9w7n-57">
          <mxGeometry y="150" width="225" height="30" as="geometry" />
        </mxCell>
        <mxCell id="HyknwIUqbnqMzjjS9w7n-73" value="" style="rounded=1;whiteSpace=wrap;html=1;" vertex="1" parent="WIyWlLk6GJQsqaUBKTNV-1">
          <mxGeometry x="30" y="238" width="229" height="249" as="geometry" />
        </mxCell>
        <mxCell id="HyknwIUqbnqMzjjS9w7n-74" value="КодСоставаПоставки:&amp;nbsp;VARCHAR(10)" style="text;strokeColor=none;fillColor=none;align=left;verticalAlign=middle;spacingLeft=4;spacingRight=4;overflow=hidden;points=[[0,0.5],[1,0.5]];portConstraint=eastwest;rotatable=0;whiteSpace=wrap;html=1;" vertex="1" parent="WIyWlLk6GJQsqaUBKTNV-1">
          <mxGeometry x="34" y="245" width="216" height="30" as="geometry" />
        </mxCell>
        <mxCell id="HyknwIUqbnqMzjjS9w7n-75" value="КодПоставки: VARCHAR(10) (FK)" style="text;strokeColor=none;fillColor=none;align=left;verticalAlign=middle;spacingLeft=4;spacingRight=4;overflow=hidden;points=[[0,0.5],[1,0.5]];portConstraint=eastwest;rotatable=0;whiteSpace=wrap;html=1;" vertex="1" parent="WIyWlLk6GJQsqaUBKTNV-1">
          <mxGeometry x="34" y="273" width="216" height="30" as="geometry" />
        </mxCell>
        <mxCell id="HyknwIUqbnqMzjjS9w7n-76" value="КодТовара: VARCHAR(10) (FK)" style="text;strokeColor=none;fillColor=none;align=left;verticalAlign=middle;spacingLeft=4;spacingRight=4;overflow=hidden;points=[[0,0.5],[1,0.5]];portConstraint=eastwest;rotatable=0;whiteSpace=wrap;html=1;" vertex="1" parent="WIyWlLk6GJQsqaUBKTNV-1">
          <mxGeometry x="34" y="298" width="219" height="30" as="geometry" />
        </mxCell>
        <mxCell id="HyknwIUqbnqMzjjS9w7n-77" value="" style="endArrow=none;html=1;rounded=0;entryX=1;entryY=0.381;entryDx=0;entryDy=0;entryPerimeter=0;exitX=0;exitY=0.381;exitDx=0;exitDy=0;exitPerimeter=0;" edge="1" parent="WIyWlLk6GJQsqaUBKTNV-1" source="HyknwIUqbnqMzjjS9w7n-73" target="HyknwIUqbnqMzjjS9w7n-73">
          <mxGeometry width="50" height="50" relative="1" as="geometry">
            <mxPoint x="-5" y="352" as="sourcePoint" />
            <mxPoint x="-32" y="329" as="targetPoint" />
          </mxGeometry>
        </mxCell>
        <mxCell id="HyknwIUqbnqMzjjS9w7n-78" value="ЦенаТовара: INTEGER" style="text;strokeColor=none;fillColor=none;align=left;verticalAlign=middle;spacingLeft=4;spacingRight=4;overflow=hidden;points=[[0,0.5],[1,0.5]];portConstraint=eastwest;rotatable=0;whiteSpace=wrap;html=1;" vertex="1" parent="WIyWlLk6GJQsqaUBKTNV-1">
          <mxGeometry x="34" y="340" width="288" height="30" as="geometry" />
        </mxCell>
        <mxCell id="HyknwIUqbnqMzjjS9w7n-79" value="КоличествоТовара: INTEGER" style="text;strokeColor=none;fillColor=none;align=left;verticalAlign=middle;spacingLeft=4;spacingRight=4;overflow=hidden;points=[[0,0.5],[1,0.5]];portConstraint=eastwest;rotatable=0;whiteSpace=wrap;html=1;" vertex="1" parent="WIyWlLk6GJQsqaUBKTNV-1">
          <mxGeometry x="34" y="365" width="288" height="30" as="geometry" />
        </mxCell>
        <mxCell id="HyknwIUqbnqMzjjS9w7n-80" value="СрокГодности: DATE" style="text;strokeColor=none;fillColor=none;align=left;verticalAlign=middle;spacingLeft=4;spacingRight=4;overflow=hidden;points=[[0,0.5],[1,0.5]];portConstraint=eastwest;rotatable=0;whiteSpace=wrap;html=1;" vertex="1" parent="WIyWlLk6GJQsqaUBKTNV-1">
          <mxGeometry x="34" y="390" width="288" height="30" as="geometry" />
        </mxCell>
        <mxCell id="HyknwIUqbnqMzjjS9w7n-81" value="Примечание: VARCHAR(50)" style="text;strokeColor=none;fillColor=none;align=left;verticalAlign=middle;spacingLeft=4;spacingRight=4;overflow=hidden;points=[[0,0.5],[1,0.5]];portConstraint=eastwest;rotatable=0;whiteSpace=wrap;html=1;" vertex="1" parent="WIyWlLk6GJQsqaUBKTNV-1">
          <mxGeometry x="34" y="414" width="288" height="30" as="geometry" />
        </mxCell>
        <mxCell id="HyknwIUqbnqMzjjS9w7n-82" value="ОстатокПоставки: INTEGER" style="text;strokeColor=none;fillColor=none;align=left;verticalAlign=middle;spacingLeft=4;spacingRight=4;overflow=hidden;points=[[0,0.5],[1,0.5]];portConstraint=eastwest;rotatable=0;whiteSpace=wrap;html=1;" vertex="1" parent="WIyWlLk6GJQsqaUBKTNV-1">
          <mxGeometry x="34" y="438" width="288" height="30" as="geometry" />
        </mxCell>
        <mxCell id="HyknwIUqbnqMzjjS9w7n-83" value="" style="rounded=1;whiteSpace=wrap;html=1;" vertex="1" parent="WIyWlLk6GJQsqaUBKTNV-1">
          <mxGeometry x="34" y="533" width="244" height="233" as="geometry" />
        </mxCell>
        <mxCell id="HyknwIUqbnqMzjjS9w7n-84" value="КодСоставаЗаказа:&amp;nbsp;VARCHAR(10)" style="text;strokeColor=none;fillColor=none;align=left;verticalAlign=middle;spacingLeft=4;spacingRight=4;overflow=hidden;points=[[0,0.5],[1,0.5]];portConstraint=eastwest;rotatable=0;whiteSpace=wrap;html=1;" vertex="1" parent="WIyWlLk6GJQsqaUBKTNV-1">
          <mxGeometry x="38" y="540" width="264" height="30" as="geometry" />
        </mxCell>
        <mxCell id="HyknwIUqbnqMzjjS9w7n-85" value="КодЗаказа: VARCHAR(10) (FK)" style="text;strokeColor=none;fillColor=none;align=left;verticalAlign=middle;spacingLeft=4;spacingRight=4;overflow=hidden;points=[[0,0.5],[1,0.5]];portConstraint=eastwest;rotatable=0;whiteSpace=wrap;html=1;" vertex="1" parent="WIyWlLk6GJQsqaUBKTNV-1">
          <mxGeometry x="38" y="568" width="286" height="30" as="geometry" />
        </mxCell>
        <mxCell id="HyknwIUqbnqMzjjS9w7n-86" value="КодТовара: VARCHAR(10) (FK)" style="text;strokeColor=none;fillColor=none;align=left;verticalAlign=middle;spacingLeft=4;spacingRight=4;overflow=hidden;points=[[0,0.5],[1,0.5]];portConstraint=eastwest;rotatable=0;whiteSpace=wrap;html=1;" vertex="1" parent="WIyWlLk6GJQsqaUBKTNV-1">
          <mxGeometry x="38" y="593" width="297" height="30" as="geometry" />
        </mxCell>
        <mxCell id="HyknwIUqbnqMzjjS9w7n-87" value="" style="endArrow=none;html=1;rounded=0;entryX=1;entryY=0.381;entryDx=0;entryDy=0;entryPerimeter=0;exitX=0;exitY=0.381;exitDx=0;exitDy=0;exitPerimeter=0;" edge="1" parent="WIyWlLk6GJQsqaUBKTNV-1" source="HyknwIUqbnqMzjjS9w7n-83" target="HyknwIUqbnqMzjjS9w7n-83">
          <mxGeometry width="50" height="50" relative="1" as="geometry">
            <mxPoint x="-1" y="647" as="sourcePoint" />
            <mxPoint x="-28" y="624" as="targetPoint" />
          </mxGeometry>
        </mxCell>
        <mxCell id="HyknwIUqbnqMzjjS9w7n-88" value="ЦенаТовара: INTEGER" style="text;strokeColor=none;fillColor=none;align=left;verticalAlign=middle;spacingLeft=4;spacingRight=4;overflow=hidden;points=[[0,0.5],[1,0.5]];portConstraint=eastwest;rotatable=0;whiteSpace=wrap;html=1;" vertex="1" parent="WIyWlLk6GJQsqaUBKTNV-1">
          <mxGeometry x="38" y="658" width="288" height="30" as="geometry" />
        </mxCell>
        <mxCell id="HyknwIUqbnqMzjjS9w7n-89" value="КоличествоТовара: INTEGER" style="text;strokeColor=none;fillColor=none;align=left;verticalAlign=middle;spacingLeft=4;spacingRight=4;overflow=hidden;points=[[0,0.5],[1,0.5]];portConstraint=eastwest;rotatable=0;whiteSpace=wrap;html=1;" vertex="1" parent="WIyWlLk6GJQsqaUBKTNV-1">
          <mxGeometry x="38" y="685" width="288" height="30" as="geometry" />
        </mxCell>
        <mxCell id="HyknwIUqbnqMzjjS9w7n-90" value="КодСотаваПоставки: VARCHAR(10) (FK)" style="text;strokeColor=none;fillColor=none;align=left;verticalAlign=middle;spacingLeft=4;spacingRight=4;overflow=hidden;points=[[0,0.5],[1,0.5]];portConstraint=eastwest;rotatable=0;whiteSpace=wrap;html=1;" vertex="1" parent="WIyWlLk6GJQsqaUBKTNV-1">
          <mxGeometry x="38" y="633" width="237" height="30" as="geometry" />
        </mxCell>
        <mxCell id="HyknwIUqbnqMzjjS9w7n-91" value="Примечание: VARCHAR(50)" style="text;strokeColor=none;fillColor=none;align=left;verticalAlign=middle;spacingLeft=4;spacingRight=4;overflow=hidden;points=[[0,0.5],[1,0.5]];portConstraint=eastwest;rotatable=0;whiteSpace=wrap;html=1;" vertex="1" parent="WIyWlLk6GJQsqaUBKTNV-1">
          <mxGeometry x="38" y="709" width="288" height="30" as="geometry" />
        </mxCell>
        <mxCell id="HyknwIUqbnqMzjjS9w7n-95" value="Производитель" style="text;html=1;strokeColor=none;fillColor=none;align=center;verticalAlign=middle;whiteSpace=wrap;rounded=0;" vertex="1" parent="WIyWlLk6GJQsqaUBKTNV-1">
          <mxGeometry x="19" y="32" width="118" height="30" as="geometry" />
        </mxCell>
        <mxCell id="HyknwIUqbnqMzjjS9w7n-96" value="Товар" style="text;html=1;strokeColor=none;fillColor=none;align=center;verticalAlign=middle;whiteSpace=wrap;rounded=0;" vertex="1" parent="WIyWlLk6GJQsqaUBKTNV-1">
          <mxGeometry x="382" y="20" width="60" height="30" as="geometry" />
        </mxCell>
        <mxCell id="HyknwIUqbnqMzjjS9w7n-97" value="Поставщик" style="text;html=1;strokeColor=none;fillColor=none;align=center;verticalAlign=middle;whiteSpace=wrap;rounded=0;" vertex="1" parent="WIyWlLk6GJQsqaUBKTNV-1">
          <mxGeometry x="691.5" y="20" width="60" height="30" as="geometry" />
        </mxCell>
        <mxCell id="HyknwIUqbnqMzjjS9w7n-98" value="Поставка" style="text;html=1;strokeColor=none;fillColor=none;align=center;verticalAlign=middle;whiteSpace=wrap;rounded=0;" vertex="1" parent="WIyWlLk6GJQsqaUBKTNV-1">
          <mxGeometry x="389" y="256" width="60" height="30" as="geometry" />
        </mxCell>
        <mxCell id="HyknwIUqbnqMzjjS9w7n-99" value="Состав поставки" style="text;html=1;strokeColor=none;fillColor=none;align=center;verticalAlign=middle;whiteSpace=wrap;rounded=0;" vertex="1" parent="WIyWlLk6GJQsqaUBKTNV-1">
          <mxGeometry x="47.5" y="208" width="105" height="30" as="geometry" />
        </mxCell>
        <mxCell id="HyknwIUqbnqMzjjS9w7n-100" value="База" style="text;html=1;strokeColor=none;fillColor=none;align=center;verticalAlign=middle;whiteSpace=wrap;rounded=0;" vertex="1" parent="WIyWlLk6GJQsqaUBKTNV-1">
          <mxGeometry x="751.5" y="218" width="60" height="30" as="geometry" />
        </mxCell>
        <mxCell id="HyknwIUqbnqMzjjS9w7n-101" value="Менеджер" style="text;html=1;strokeColor=none;fillColor=none;align=center;verticalAlign=middle;whiteSpace=wrap;rounded=0;" vertex="1" parent="WIyWlLk6GJQsqaUBKTNV-1">
          <mxGeometry x="640" y="462" width="60" height="30" as="geometry" />
        </mxCell>
        <mxCell id="HyknwIUqbnqMzjjS9w7n-102" value="Состав заказа" style="text;html=1;strokeColor=none;fillColor=none;align=center;verticalAlign=middle;whiteSpace=wrap;rounded=0;" vertex="1" parent="WIyWlLk6GJQsqaUBKTNV-1">
          <mxGeometry x="40.5" y="505" width="119" height="30" as="geometry" />
        </mxCell>
        <mxCell id="HyknwIUqbnqMzjjS9w7n-103" value="Заказ" style="text;html=1;strokeColor=none;fillColor=none;align=center;verticalAlign=middle;whiteSpace=wrap;rounded=0;" vertex="1" parent="WIyWlLk6GJQsqaUBKTNV-1">
          <mxGeometry x="382" y="580" width="60" height="30" as="geometry" />
        </mxCell>
        <mxCell id="HyknwIUqbnqMzjjS9w7n-104" value="Покупатель" style="text;html=1;strokeColor=none;fillColor=none;align=center;verticalAlign=middle;whiteSpace=wrap;rounded=0;" vertex="1" parent="WIyWlLk6GJQsqaUBKTNV-1">
          <mxGeometry x="715.5" y="662" width="60" height="30" as="geometry" />
        </mxCell>
        <mxCell id="HyknwIUqbnqMzjjS9w7n-107" value="" style="rhombus;whiteSpace=wrap;html=1;" vertex="1" parent="WIyWlLk6GJQsqaUBKTNV-1">
          <mxGeometry x="705" y="170" width="13" height="10" as="geometry" />
        </mxCell>
        <mxCell id="HyknwIUqbnqMzjjS9w7n-111" value="" style="shape=waypoint;sketch=0;fillStyle=solid;size=6;pointerEvents=1;points=[];fillColor=none;resizable=0;rotatable=0;perimeter=centerPerimeter;snapToPoint=1;" vertex="1" parent="WIyWlLk6GJQsqaUBKTNV-1">
          <mxGeometry x="622" y="320" width="20" height="20" as="geometry" />
        </mxCell>
        <mxCell id="HyknwIUqbnqMzjjS9w7n-112" value="&lt;b&gt;P&lt;/b&gt;" style="text;html=1;strokeColor=none;fillColor=none;align=center;verticalAlign=middle;whiteSpace=wrap;rounded=0;" vertex="1" parent="WIyWlLk6GJQsqaUBKTNV-1">
          <mxGeometry x="622" y="303" width="32" height="32" as="geometry" />
        </mxCell>
        <mxCell id="HyknwIUqbnqMzjjS9w7n-114" value="" style="endArrow=none;html=1;rounded=0;strokeWidth=2;exitDx=0;exitDy=0;entryX=-0.008;entryY=0.071;entryDx=0;entryDy=0;entryPerimeter=0;" edge="1" parent="WIyWlLk6GJQsqaUBKTNV-1" source="HyknwIUqbnqMzjjS9w7n-115" target="HyknwIUqbnqMzjjS9w7n-27">
          <mxGeometry width="50" height="50" relative="1" as="geometry">
            <mxPoint x="309" y="361" as="sourcePoint" />
            <mxPoint x="359" y="311" as="targetPoint" />
          </mxGeometry>
        </mxCell>
        <mxCell id="HyknwIUqbnqMzjjS9w7n-116" value="" style="endArrow=none;html=1;rounded=0;strokeWidth=2;exitX=1;exitY=0.25;exitDx=0;exitDy=0;entryDx=0;entryDy=0;entryPerimeter=0;" edge="1" parent="WIyWlLk6GJQsqaUBKTNV-1" source="HyknwIUqbnqMzjjS9w7n-73" target="HyknwIUqbnqMzjjS9w7n-115">
          <mxGeometry width="50" height="50" relative="1" as="geometry">
            <mxPoint x="259" y="300" as="sourcePoint" />
            <mxPoint x="387" y="299" as="targetPoint" />
          </mxGeometry>
        </mxCell>
        <mxCell id="HyknwIUqbnqMzjjS9w7n-115" value="" style="shape=waypoint;sketch=0;fillStyle=solid;size=6;pointerEvents=1;points=[];fillColor=none;resizable=0;rotatable=0;perimeter=centerPerimeter;snapToPoint=1;" vertex="1" parent="WIyWlLk6GJQsqaUBKTNV-1">
          <mxGeometry x="250" y="289" width="20" height="20" as="geometry" />
        </mxCell>
        <mxCell id="HyknwIUqbnqMzjjS9w7n-117" value="&lt;b&gt;P&lt;/b&gt;" style="text;html=1;strokeColor=none;fillColor=none;align=center;verticalAlign=middle;whiteSpace=wrap;rounded=0;" vertex="1" parent="WIyWlLk6GJQsqaUBKTNV-1">
          <mxGeometry x="253" y="275" width="32" height="32" as="geometry" />
        </mxCell>
        <mxCell id="HyknwIUqbnqMzjjS9w7n-120" value="" style="endArrow=none;dashed=1;html=1;rounded=0;strokeWidth=1;dashPattern=12 12;entryX=0.5;entryY=1;entryDx=0;entryDy=0;exitX=0.438;exitY=0.781;exitDx=0;exitDy=0;exitPerimeter=0;" edge="1" parent="WIyWlLk6GJQsqaUBKTNV-1" source="HyknwIUqbnqMzjjS9w7n-112" target="HyknwIUqbnqMzjjS9w7n-107">
          <mxGeometry width="50" height="50" relative="1" as="geometry">
            <mxPoint x="663" y="280" as="sourcePoint" />
            <mxPoint x="713" y="230" as="targetPoint" />
            <Array as="points">
              <mxPoint x="714" y="328" />
            </Array>
          </mxGeometry>
        </mxCell>
        <mxCell id="HyknwIUqbnqMzjjS9w7n-121" value="" style="endArrow=none;dashed=1;html=1;rounded=0;strokeWidth=1;dashPattern=12 12;exitDx=0;exitDy=0;entryX=0.5;entryY=0;entryDx=0;entryDy=0;" edge="1" parent="WIyWlLk6GJQsqaUBKTNV-1" source="HyknwIUqbnqMzjjS9w7n-124" target="HyknwIUqbnqMzjjS9w7n-38">
          <mxGeometry width="50" height="50" relative="1" as="geometry">
            <mxPoint x="650" y="417" as="sourcePoint" />
            <mxPoint x="725" y="446" as="targetPoint" />
            <Array as="points">
              <mxPoint x="748" y="357" />
            </Array>
          </mxGeometry>
        </mxCell>
        <mxCell id="HyknwIUqbnqMzjjS9w7n-122" value="" style="shape=waypoint;sketch=0;fillStyle=solid;size=6;pointerEvents=1;points=[];fillColor=none;resizable=0;rotatable=0;perimeter=centerPerimeter;snapToPoint=1;" vertex="1" parent="WIyWlLk6GJQsqaUBKTNV-1">
          <mxGeometry x="622" y="350" width="20" height="20" as="geometry" />
        </mxCell>
        <mxCell id="HyknwIUqbnqMzjjS9w7n-125" value="" style="endArrow=none;dashed=1;html=1;rounded=0;strokeWidth=1;dashPattern=12 12;exitDx=0;exitDy=0;" edge="1" parent="WIyWlLk6GJQsqaUBKTNV-1" source="HyknwIUqbnqMzjjS9w7n-122">
          <mxGeometry width="50" height="50" relative="1" as="geometry">
            <mxPoint x="632" y="448" as="sourcePoint" />
            <mxPoint x="750" y="360" as="targetPoint" />
            <Array as="points" />
          </mxGeometry>
        </mxCell>
        <mxCell id="HyknwIUqbnqMzjjS9w7n-124" value="" style="rhombus;whiteSpace=wrap;html=1;" vertex="1" parent="WIyWlLk6GJQsqaUBKTNV-1">
          <mxGeometry x="744" y="481" width="12" height="11" as="geometry" />
        </mxCell>
        <mxCell id="HyknwIUqbnqMzjjS9w7n-126" value="" style="shape=waypoint;sketch=0;fillStyle=solid;size=6;pointerEvents=1;points=[];fillColor=none;resizable=0;rotatable=0;perimeter=centerPerimeter;snapToPoint=1;" vertex="1" parent="WIyWlLk6GJQsqaUBKTNV-1">
          <mxGeometry x="622" y="438" width="20" height="20" as="geometry" />
        </mxCell>
        <mxCell id="HyknwIUqbnqMzjjS9w7n-129" value="" style="endArrow=none;dashed=1;html=1;rounded=0;strokeWidth=1;dashPattern=12 12;exitDx=0;exitDy=0;entryX=0.5;entryY=1;entryDx=0;entryDy=0;" edge="1" parent="WIyWlLk6GJQsqaUBKTNV-1" source="HyknwIUqbnqMzjjS9w7n-126" target="HyknwIUqbnqMzjjS9w7n-128">
          <mxGeometry width="50" height="50" relative="1" as="geometry">
            <mxPoint x="632" y="389" as="sourcePoint" />
            <mxPoint x="757" y="388" as="targetPoint" />
            <Array as="points">
              <mxPoint x="782" y="448" />
            </Array>
          </mxGeometry>
        </mxCell>
        <mxCell id="HyknwIUqbnqMzjjS9w7n-128" value="" style="rhombus;whiteSpace=wrap;html=1;" vertex="1" parent="WIyWlLk6GJQsqaUBKTNV-1">
          <mxGeometry x="775.5" y="423.5" width="12" height="11" as="geometry" />
        </mxCell>
        <mxCell id="HyknwIUqbnqMzjjS9w7n-130" value="" style="rhombus;whiteSpace=wrap;html=1;" vertex="1" parent="WIyWlLk6GJQsqaUBKTNV-1">
          <mxGeometry x="226" y="89" width="12" height="11" as="geometry" />
        </mxCell>
        <mxCell id="HyknwIUqbnqMzjjS9w7n-131" value="" style="shape=waypoint;sketch=0;fillStyle=solid;size=6;pointerEvents=1;points=[];fillColor=none;resizable=0;rotatable=0;perimeter=centerPerimeter;snapToPoint=1;" vertex="1" parent="WIyWlLk6GJQsqaUBKTNV-1">
          <mxGeometry x="373" y="84.5" width="20" height="20" as="geometry" />
        </mxCell>
        <mxCell id="HyknwIUqbnqMzjjS9w7n-133" value="" style="endArrow=none;dashed=1;html=1;rounded=0;strokeWidth=1;dashPattern=12 12;exitDx=0;exitDy=0;exitX=1;exitY=0.5;" edge="1" parent="WIyWlLk6GJQsqaUBKTNV-1" source="HyknwIUqbnqMzjjS9w7n-130" target="HyknwIUqbnqMzjjS9w7n-131">
          <mxGeometry width="50" height="50" relative="1" as="geometry">
            <mxPoint x="242" y="156" as="sourcePoint" />
            <mxPoint x="374" y="157" as="targetPoint" />
          </mxGeometry>
        </mxCell>
        <mxCell id="HyknwIUqbnqMzjjS9w7n-134" value="" style="rhombus;whiteSpace=wrap;html=1;" vertex="1" parent="WIyWlLk6GJQsqaUBKTNV-1">
          <mxGeometry x="254" y="256" width="12" height="11" as="geometry" />
        </mxCell>
        <mxCell id="HyknwIUqbnqMzjjS9w7n-135" value="" style="shape=waypoint;sketch=0;fillStyle=solid;size=6;pointerEvents=1;points=[];fillColor=none;resizable=0;rotatable=0;perimeter=centerPerimeter;snapToPoint=1;" vertex="1" parent="WIyWlLk6GJQsqaUBKTNV-1">
          <mxGeometry x="270" y="638" width="20" height="20" as="geometry" />
        </mxCell>
        <mxCell id="HyknwIUqbnqMzjjS9w7n-138" value="" style="endArrow=none;dashed=1;html=1;rounded=0;strokeWidth=1;entryX=0.958;entryY=0.567;entryDx=0;entryDy=0;entryPerimeter=0;exitX=1;exitY=0.5;exitDx=0;exitDy=0;dashPattern=12 12;" edge="1" parent="WIyWlLk6GJQsqaUBKTNV-1" source="HyknwIUqbnqMzjjS9w7n-134" target="HyknwIUqbnqMzjjS9w7n-135">
          <mxGeometry width="50" height="50" relative="1" as="geometry">
            <mxPoint x="331" y="256" as="sourcePoint" />
            <mxPoint x="351" y="544" as="targetPoint" />
            <Array as="points">
              <mxPoint x="326" y="262" />
              <mxPoint x="326" y="648" />
            </Array>
          </mxGeometry>
        </mxCell>
        <mxCell id="HyknwIUqbnqMzjjS9w7n-140" value="" style="endArrow=none;html=1;rounded=0;strokeWidth=2;exitX=0.792;exitY=0.767;exitDx=0;exitDy=0;exitPerimeter=0;" edge="1" parent="WIyWlLk6GJQsqaUBKTNV-1" source="HyknwIUqbnqMzjjS9w7n-141">
          <mxGeometry width="50" height="50" relative="1" as="geometry">
            <mxPoint x="266" y="200" as="sourcePoint" />
            <mxPoint x="388" y="63" as="targetPoint" />
            <Array as="points">
              <mxPoint x="310" y="319" />
              <mxPoint x="312" y="63" />
            </Array>
          </mxGeometry>
        </mxCell>
        <mxCell id="HyknwIUqbnqMzjjS9w7n-141" value="" style="shape=waypoint;sketch=0;fillStyle=solid;size=6;pointerEvents=1;points=[];fillColor=none;resizable=0;rotatable=0;perimeter=centerPerimeter;snapToPoint=1;" vertex="1" parent="WIyWlLk6GJQsqaUBKTNV-1">
          <mxGeometry x="250" y="309" width="20" height="20" as="geometry" />
        </mxCell>
        <mxCell id="HyknwIUqbnqMzjjS9w7n-142" value="" style="endArrow=none;dashed=1;html=1;rounded=0;strokeWidth=1;dashPattern=12 12;exitDx=0;exitDy=0;entryX=0.5;entryY=0;entryDx=0;entryDy=0;exitX=0.75;exitY=0.408;exitPerimeter=0;" edge="1" parent="WIyWlLk6GJQsqaUBKTNV-1" source="HyknwIUqbnqMzjjS9w7n-143" target="HyknwIUqbnqMzjjS9w7n-53">
          <mxGeometry width="50" height="50" relative="1" as="geometry">
            <mxPoint x="633" y="641" as="sourcePoint" />
            <mxPoint x="765" y="642" as="targetPoint" />
            <Array as="points">
              <mxPoint x="808" y="650" />
            </Array>
          </mxGeometry>
        </mxCell>
        <mxCell id="HyknwIUqbnqMzjjS9w7n-143" value="" style="shape=waypoint;sketch=0;fillStyle=solid;size=6;pointerEvents=1;points=[];fillColor=none;resizable=0;rotatable=0;perimeter=centerPerimeter;snapToPoint=1;" vertex="1" parent="WIyWlLk6GJQsqaUBKTNV-1">
          <mxGeometry x="605" y="639.5" width="20" height="20" as="geometry" />
        </mxCell>
        <mxCell id="HyknwIUqbnqMzjjS9w7n-144" value="" style="shape=waypoint;sketch=0;fillStyle=solid;size=6;pointerEvents=1;points=[];fillColor=none;resizable=0;rotatable=0;perimeter=centerPerimeter;snapToPoint=1;" vertex="1" parent="WIyWlLk6GJQsqaUBKTNV-1">
          <mxGeometry x="605" y="668" width="20" height="20" as="geometry" />
        </mxCell>
        <mxCell id="HyknwIUqbnqMzjjS9w7n-148" value="" style="endArrow=none;dashed=1;html=1;rounded=0;strokeWidth=1;dashPattern=12 12;exitDx=0;exitDy=0;entryX=0.5;entryY=1;entryDx=0;entryDy=0;exitX=0.708;exitY=0.608;exitPerimeter=0;" edge="1" parent="WIyWlLk6GJQsqaUBKTNV-1" source="HyknwIUqbnqMzjjS9w7n-144" target="HyknwIUqbnqMzjjS9w7n-147">
          <mxGeometry width="50" height="50" relative="1" as="geometry">
            <mxPoint x="615" y="678" as="sourcePoint" />
            <mxPoint x="686" y="611" as="targetPoint" />
            <Array as="points">
              <mxPoint x="686" y="678" />
            </Array>
          </mxGeometry>
        </mxCell>
        <mxCell id="HyknwIUqbnqMzjjS9w7n-147" value="" style="rhombus;whiteSpace=wrap;html=1;" vertex="1" parent="WIyWlLk6GJQsqaUBKTNV-1">
          <mxGeometry x="679.5" y="606" width="12" height="11" as="geometry" />
        </mxCell>
        <mxCell id="HyknwIUqbnqMzjjS9w7n-149" value="" style="shape=waypoint;sketch=0;fillStyle=solid;size=6;pointerEvents=1;points=[];fillColor=none;resizable=0;rotatable=0;perimeter=centerPerimeter;snapToPoint=1;" vertex="1" parent="WIyWlLk6GJQsqaUBKTNV-1">
          <mxGeometry x="270" y="573" width="20" height="20" as="geometry" />
        </mxCell>
        <mxCell id="HyknwIUqbnqMzjjS9w7n-150" value="" style="endArrow=none;html=1;rounded=0;strokeWidth=2;exitX=1;exitY=0.65;exitDx=0;exitDy=0;exitPerimeter=0;entryX=0.5;entryY=0;entryDx=0;entryDy=0;" edge="1" parent="WIyWlLk6GJQsqaUBKTNV-1" source="HyknwIUqbnqMzjjS9w7n-149" target="HyknwIUqbnqMzjjS9w7n-57">
          <mxGeometry width="50" height="50" relative="1" as="geometry">
            <mxPoint x="373" y="580" as="sourcePoint" />
            <mxPoint x="497" y="578" as="targetPoint" />
            <Array as="points">
              <mxPoint x="502" y="583" />
            </Array>
          </mxGeometry>
        </mxCell>
        <mxCell id="HyknwIUqbnqMzjjS9w7n-151" value="&lt;b&gt;P&lt;/b&gt;" style="text;html=1;strokeColor=none;fillColor=none;align=center;verticalAlign=middle;whiteSpace=wrap;rounded=0;" vertex="1" parent="WIyWlLk6GJQsqaUBKTNV-1">
          <mxGeometry x="278" y="554" width="32" height="32" as="geometry" />
        </mxCell>
        <mxCell id="HyknwIUqbnqMzjjS9w7n-152" value="&lt;b&gt;P&lt;/b&gt;" style="text;html=1;strokeColor=none;fillColor=none;align=center;verticalAlign=middle;whiteSpace=wrap;rounded=0;" vertex="1" parent="WIyWlLk6GJQsqaUBKTNV-1">
          <mxGeometry x="254" y="320" width="32" height="32" as="geometry" />
        </mxCell>
        <mxCell id="HyknwIUqbnqMzjjS9w7n-153" value="&lt;b&gt;P&lt;/b&gt;" style="text;html=1;strokeColor=none;fillColor=none;align=center;verticalAlign=middle;whiteSpace=wrap;rounded=0;" vertex="1" parent="WIyWlLk6GJQsqaUBKTNV-1">
          <mxGeometry x="627" y="356" width="32" height="32" as="geometry" />
        </mxCell>
        <mxCell id="HyknwIUqbnqMzjjS9w7n-154" value="&lt;b&gt;P&lt;/b&gt;" style="text;html=1;strokeColor=none;fillColor=none;align=center;verticalAlign=middle;whiteSpace=wrap;rounded=0;" vertex="1" parent="WIyWlLk6GJQsqaUBKTNV-1">
          <mxGeometry x="625" y="420" width="32" height="32" as="geometry" />
        </mxCell>
        <mxCell id="HyknwIUqbnqMzjjS9w7n-155" value="&lt;b&gt;P&lt;/b&gt;" style="text;html=1;strokeColor=none;fillColor=none;align=center;verticalAlign=middle;whiteSpace=wrap;rounded=0;" vertex="1" parent="WIyWlLk6GJQsqaUBKTNV-1">
          <mxGeometry x="608" y="619" width="32" height="32" as="geometry" />
        </mxCell>
        <mxCell id="HyknwIUqbnqMzjjS9w7n-156" value="&lt;b&gt;P&lt;/b&gt;" style="text;html=1;strokeColor=none;fillColor=none;align=center;verticalAlign=middle;whiteSpace=wrap;rounded=0;" vertex="1" parent="WIyWlLk6GJQsqaUBKTNV-1">
          <mxGeometry x="608" y="677" width="32" height="32" as="geometry" />
        </mxCell>
        <mxCell id="HyknwIUqbnqMzjjS9w7n-157" value="&lt;b&gt;P&lt;/b&gt;" style="text;html=1;strokeColor=none;fillColor=none;align=center;verticalAlign=middle;whiteSpace=wrap;rounded=0;" vertex="1" parent="WIyWlLk6GJQsqaUBKTNV-1">
          <mxGeometry x="357" y="94" width="32" height="32" as="geometry" />
        </mxCell>
        <mxCell id="HyknwIUqbnqMzjjS9w7n-158" value="&lt;b&gt;P&lt;/b&gt;" style="text;html=1;strokeColor=none;fillColor=none;align=center;verticalAlign=middle;whiteSpace=wrap;rounded=0;" vertex="1" parent="WIyWlLk6GJQsqaUBKTNV-1">
          <mxGeometry x="275" y="621" width="32" height="32" as="geometry" />
        </mxCell>
      </root>
    </mxGraphModel>
  </diagram>
</mxfile>
